<svg width="162" height="72" viewBox="0 0 162 72" fill="none" xmlns="http://www.w3.org/2000/svg">
<path d="M1.2 24.168V42H4.608V24.168H1.2ZM7.3005 42H10.7085V30H7.3005V42ZM8.9805 27.576C10.0605 27.576 10.9485 26.712 10.9485 25.608C10.9485 24.528 10.0605 23.664 8.9805 23.664C7.9005 23.664 7.0125 24.528 7.0125 25.608C7.0125 26.712 7.9005 27.576 8.9805 27.576ZM12.5006 33.504H14.5886V42H18.0206V33.504H23.6126V33.12H18.0206V28.776C18.0206 26.16 19.1726 25.296 20.6126 25.296C22.5806 25.296 23.8526 26.328 23.9726 27.984C24.1406 30.432 21.7886 31.104 19.7726 31.104V31.512C22.0286 31.512 24.5486 30.648 24.3566 27.96C24.2606 26.496 23.1806 24.936 20.5886 24.912C17.2046 24.912 14.5886 26.424 14.5886 31.752V33.12H12.5006V33.504ZM25.3322 36.024C25.3322 39.672 28.0682 42.384 32.6042 42.384C36.3242 42.384 38.0762 40.56 38.4842 40.224L38.2922 39.984C36.7322 41.328 34.7882 41.976 32.6042 41.976C29.8202 41.976 29.0762 39.48 28.9322 37.128H38.1722C38.1722 33.144 37.6442 29.64 32.6042 29.64C28.8122 29.64 25.3322 31.872 25.3322 36.024ZM32.6042 30.024C37.0202 30.024 37.7162 33.144 37.7162 36.744H28.9082C28.8122 34.2 29.1722 30.024 32.6042 30.024ZM49.7591 38.208C49.7591 41.448 52.0151 42.36 56.0231 42.36C59.7431 42.36 61.7831 41.4 61.7831 38.496C61.7831 36.576 60.6791 35.496 58.8071 34.992L61.1111 34.8C61.1111 31.752 59.8631 29.616 55.2791 29.616C52.3511 29.616 50.2631 30.72 50.2631 33C50.2631 35.16 51.4391 36.312 55.0871 36.96C59.1191 37.68 60.3671 38.04 60.3671 39.36C60.3671 41.232 59.4551 42 56.0231 42C53.3831 42 52.8071 40.656 52.8071 37.704L49.7591 38.208ZM55.2791 29.952C58.2071 29.952 58.2071 31.8 58.2071 34.824C58.2071 34.8 56.3831 34.464 55.2791 34.272C52.2551 33.744 51.4631 33.312 51.4631 32.112C51.4631 30.6 53.1671 29.952 55.2791 29.952ZM64.323 30.36V34.8C64.323 40.824 66.387 42.384 70.371 42.384C73.299 42.384 74.667 39.576 75.363 37.152L74.979 37.056C74.067 40.32 72.483 41.976 70.347 41.976C68.931 41.976 67.755 41.136 67.755 38.52V30.36H73.347V29.976H67.755V25.224H64.323V29.976H62.235V30.36H64.323ZM76.5516 42H79.9596C79.9596 38.496 80.6316 30.024 85.4316 30.024C86.8476 30.024 87.5196 30.912 87.5196 31.728C87.5196 33.024 86.2476 33.792 85.1436 34.104L85.2876 34.488C86.5596 34.104 87.9036 33.216 87.9036 31.728C87.9036 30.72 87.1116 29.616 85.4316 29.616C81.7596 29.616 80.4636 34.008 79.9596 37.008V30.024H76.5516V42ZM88.4963 36.024C88.4963 39.672 91.2323 42.384 95.7683 42.384C99.4883 42.384 101.24 40.56 101.648 40.224L101.456 39.984C99.8963 41.328 97.9523 41.976 95.7683 41.976C92.9843 41.976 92.2403 39.48 92.0963 37.128H101.336C101.336 33.144 100.808 29.64 95.7683 29.64C91.9763 29.64 88.4963 31.872 88.4963 36.024ZM95.7683 30.024C100.184 30.024 100.88 33.144 100.88 36.744H92.0723C91.9763 34.2 92.3363 30.024 95.7683 30.024ZM108.762 42.384C112.53 42.384 113.658 39.408 114.186 36.264L114.234 35.976V42H117.642V34.488C117.642 30.336 114.042 29.616 111.138 29.616C106.794 29.616 104.874 31.2 104.13 32.424L106.626 33.624C104.634 34.056 103.098 35.424 103.098 37.632C103.098 41.568 105.546 42.384 108.762 42.384ZM109.53 33.768H114.114C113.826 37.224 113.154 42 108.738 42C107.322 42 106.602 41.016 106.602 37.872C106.602 34.872 107.586 33.768 109.53 33.768ZM107.586 33.456C107.586 32.88 108.402 29.904 110.994 29.904C114.018 29.904 114.162 30.936 114.162 33.384H108.738C108.33 33.384 107.946 33.408 107.586 33.456ZM139.852 29.616C136.9 29.616 135.58 32.424 134.86 34.848C134.62 35.688 134.548 36.192 134.524 36.264C134.524 36.264 134.5 36.264 134.404 36.264C134.404 32.136 133.228 29.616 128.932 29.616C126.004 29.616 124.612 32.424 123.94 34.848C123.748 35.568 123.7 35.544 123.58 36.264H123.46V30.024H120.052V42H123.46C123.46 38.496 124.132 30.024 128.932 30.024C130.372 30.024 130.972 30.888 130.972 33.504V42H134.404C134.404 38.472 135.028 30.024 139.876 30.024C141.292 30.024 141.892 30.888 141.892 33.504V42H145.348V36.48C145.348 32.592 144.22 29.616 139.852 29.616Z" fill="#7C5E8C"/>
<mask id="path-2-inside-1_458_1714" fill="white">
<path d="M91.7569 47.1089C94.4017 55.2615 99.8684 62.2031 107.174 66.6852C114.48 71.1673 123.145 72.8959 131.611 71.5601C140.077 70.2243 147.789 65.9117 153.359 59.398C158.93 52.8843 161.994 44.5968 162 36.0259C162.006 27.4549 158.954 19.163 153.393 12.6413C147.832 6.11959 140.126 1.79597 131.662 0.448008C123.198 -0.899955 114.53 0.816181 107.218 5.2878C99.9061 9.75941 94.4294 16.6931 91.7729 24.8419L92.9279 25.2185C95.4948 17.3446 100.787 10.6449 107.852 6.32422C114.917 2.00351 123.292 0.345285 131.471 1.64776C139.649 2.95023 147.095 7.12794 152.469 13.4296C157.842 19.7312 160.791 27.7433 160.785 36.025C160.779 44.3066 157.819 52.3145 152.436 58.6084C147.053 64.9023 139.602 69.0693 131.421 70.3601C123.241 71.6508 114.868 69.9805 107.809 65.6497C100.75 61.3188 95.468 54.6115 92.9125 46.734L91.7569 47.1089Z"/>
</mask>
<path d="M91.7569 47.1089C94.4017 55.2615 99.8684 62.2031 107.174 66.6852C114.48 71.1673 123.145 72.8959 131.611 71.5601C140.077 70.2243 147.789 65.9117 153.359 59.398C158.93 52.8843 161.994 44.5968 162 36.0259C162.006 27.4549 158.954 19.163 153.393 12.6413C147.832 6.11959 140.126 1.79597 131.662 0.448008C123.198 -0.899955 114.53 0.816181 107.218 5.2878C99.9061 9.75941 94.4294 16.6931 91.7729 24.8419L92.9279 25.2185C95.4948 17.3446 100.787 10.6449 107.852 6.32422C114.917 2.00351 123.292 0.345285 131.471 1.64776C139.649 2.95023 147.095 7.12794 152.469 13.4296C157.842 19.7312 160.791 27.7433 160.785 36.025C160.779 44.3066 157.819 52.3145 152.436 58.6084C147.053 64.9023 139.602 69.0693 131.421 70.3601C123.241 71.6508 114.868 69.9805 107.809 65.6497C100.75 61.3188 95.468 54.6115 92.9125 46.734L91.7569 47.1089Z" stroke="#7C5E8C" stroke-width="2" mask="url(#path-2-inside-1_458_1714)"/>
</svg>
