<svg width="52" height="43" viewBox="0 0 52 43" fill="none" xmlns="http://www.w3.org/2000/svg">
<path d="M51.2 11.88C51.2 14.5467 50.4533 17.4267 48.96 20.52C47.5733 23.6133 45.76 26.6 43.52 29.48C41.3867 32.36 39.0933 34.9733 36.64 37.32C34.1867 39.6667 32 41.48 30.08 42.76L27.84 40.2C31.7867 36.68 34.56 32.9467 36.16 29C36.3733 28.4667 36.5333 27.72 36.64 26.76C36.7467 25.6933 36.7467 24.5733 36.64 23.4C36.5333 22.12 36.2667 20.84 35.84 19.56C35.4133 18.28 34.7733 17.16 33.92 16.2C32.7467 15.0267 32.1067 13.2667 32 10.92C31.8933 8.57333 32.64 6.33333 34.24 4.19999C35.0933 3.02666 36.3733 2.12 38.08 1.48C39.7867 0.733328 41.3867 0.519994 42.88 0.839996C45.9733 1.47999 48.1067 2.86666 49.28 4.99999C50.56 7.02666 51.2 9.32 51.2 11.88ZM24.32 11.88C24.32 14.5467 23.5733 17.4267 22.08 20.52C20.6933 23.6133 18.88 26.6 16.64 29.48C14.5067 32.36 12.2133 34.9733 9.76 37.32C7.30667 39.6667 5.12 41.48 3.2 42.76L0.96 40.2C4.90667 36.68 7.68 32.9467 9.28 29C9.49333 28.4667 9.65333 27.72 9.76 26.76C9.86667 25.6933 9.86667 24.5733 9.76 23.4C9.65333 22.12 9.38667 20.84 8.96 19.56C8.53333 18.28 7.89333 17.16 7.04 16.2C5.86667 15.0267 5.22667 13.2667 5.12 10.92C5.01333 8.57333 5.76 6.33333 7.36 4.19999C8.21333 3.02666 9.49333 2.12 11.2 1.48C12.9067 0.733328 14.5067 0.519994 16 0.839996C19.0933 1.47999 21.2267 2.86666 22.4 4.99999C23.68 7.02666 24.32 9.32 24.32 11.88Z" fill="#BDBDBD"/>
</svg>
